<?xml version="1.0" standalone="no"?>
<!DOCTYPE svg PUBLIC "-//W3C//DTD SVG 20010904//EN"
 "http://www.w3.org/TR/2001/REC-SVG-20010904/DTD/svg10.dtd">
<svg version="1.0" xmlns="http://www.w3.org/2000/svg"
 width="412.000000pt" height="173.000000pt" viewBox="0 0 412.000000 173.000000"
 preserveAspectRatio="xMidYMid meet">

<g transform="translate(0.000000,173.000000) scale(0.100000,-0.100000)"
fill="#ffffff" stroke="none">
<path d="M416 1711 c180 -38 318 -114 385 -211 115 -168 74 -378 -118 -597
-108 -124 -369 -310 -595 -424 -33 -17 -58 -32 -56 -35 6 -5 223 63 333 104
218 83 417 182 580 290 140 93 291 244 336 337 42 86 52 189 24 261 -66 172
-358 275 -820 289 l-160 5 91 -19z"/>
<path d="M1160 1642 c126 -54 194 -113 233 -201 30 -67 21 -175 -22 -262 -40
-82 -129 -181 -232 -259 -44 -33 -77 -60 -73 -60 3 0 34 17 68 37 182 109 358
242 424 319 42 51 82 131 82 166 0 74 -57 141 -166 194 -82 39 -106 44 -50 10
60 -38 113 -93 126 -132 27 -80 -6 -183 -86 -269 -44 -49 -44 -49 -20 -10 14
22 33 69 42 105 31 123 -14 219 -138 296 -57 34 -213 95 -244 94 -5 0 20 -13
56 -28z"/>
<path d="M1017 703 c-4 -3 -7 -118 -7 -255 l0 -248 138 0 c129 0 142 2 190 26
98 49 149 164 124 281 -21 103 -87 172 -183 192 -55 12 -252 15 -262 4z m280
-108 c71 -42 98 -165 50 -236 -33 -50 -79 -69 -164 -69 l-73 0 0 166 0 167 78
-5 c51 -3 89 -11 109 -23z"/>
<path d="M1500 551 c0 -5 31 -86 70 -181 75 -188 75 -186 22 -242 -14 -16 -32
-28 -39 -28 -9 0 -13 -15 -13 -46 l0 -46 33 7 c40 9 80 37 107 75 18 26 61
119 150 330 15 36 35 82 44 103 l17 38 -51 -3 -51 -3 -33 -80 c-18 -44 -42
-100 -53 -125 l-20 -45 -17 55 c-10 30 -30 88 -43 128 l-26 72 -48 0 c-27 0
-49 -4 -49 -9z"/>
<path d="M1917 553 c-4 -3 -7 -84 -7 -180 l0 -173 44 0 44 0 4 110 c3 104 4
111 30 137 40 39 91 38 129 -5 28 -31 29 -36 29 -137 l0 -105 40 0 40 0 0 110
c0 147 -17 186 -104 237 -26 15 -96 16 -133 2 -19 -7 -29 -7 -31 0 -4 12 -74
15 -85 4z"/>
<path d="M2393 531 c-71 -52 -101 -149 -69 -224 42 -97 155 -143 251 -103 19
8 35 11 35 5 0 -5 20 -9 45 -9 l45 0 -2 178 -3 177 -38 3 c-26 2 -39 -1 -43
-11 -5 -13 -9 -13 -32 -1 -15 8 -54 14 -88 14 -52 0 -67 -5 -101 -29z m176
-77 c57 -48 47 -135 -19 -169 -36 -19 -63 -19 -98 -1 -61 32 -73 117 -23 167
39 39 96 40 140 3z"/>
<path d="M2757 553 c-4 -3 -7 -84 -7 -180 l0 -173 44 0 44 0 4 116 c3 108 5
117 27 135 28 23 69 24 99 3 21 -14 22 -22 22 -135 l0 -119 45 0 45 0 0 109
c0 94 3 112 21 135 27 34 79 36 109 4 18 -19 20 -35 20 -135 l0 -113 45 0 45
0 0 118 c0 103 -3 122 -23 157 -46 81 -157 109 -228 56 l-30 -22 -30 22 c-37
26 -97 35 -138 21 -19 -7 -31 -7 -31 -1 0 10 -73 13 -83 2z"/>
<path d="M3441 529 c-104 -75 -106 -228 -5 -305 34 -26 45 -29 114 -29 69 0
80 3 114 29 102 78 99 230 -6 306 -36 26 -49 30 -108 30 -59 0 -72 -4 -109
-31z m172 -69 c80 -63 37 -190 -64 -190 -27 0 -45 8 -68 29 -26 24 -31 36 -31
76 0 38 5 52 29 76 36 36 95 40 134 9z"/>
<path d="M3743 546 c3 -8 31 -49 62 -90 33 -45 53 -81 49 -89 -4 -6 -28 -41
-54 -77 -69 -95 -68 -90 -12 -90 47 0 50 1 83 50 19 27 36 50 39 50 3 0 23
-23 43 -50 36 -48 39 -50 87 -50 l50 0 -64 88 -64 89 55 74 c83 113 82 109 25
109 -48 0 -49 -1 -87 -55 -20 -30 -39 -55 -41 -55 -2 0 -22 25 -44 55 -39 53
-43 55 -86 55 -36 0 -45 -3 -41 -14z"/>
</g>
</svg>
